####
#
# OBJ File Generated by Meshlab
#
####
# Object bowl_0008.obj
#
# Vertices: 316
# Faces: 624
#
####
vn -2.2455649 1.2964778 -5.6494117
v -8.1658201 4.1539202 1.3739200
vn -1.3124281 0.3516655 -6.0838795
v -5.4358602 1.4565300 0.1987980
vn -2.5045867 0.6711133 -5.6494207
v -8.8987703 2.3844199 1.3739200
vn -1.1766925 0.6793630 -6.0838790
v -5.0610600 2.3613801 0.1987980
vn -1.8334923 1.8334942 -5.6494164
v -6.9998598 5.6734200 1.3739200
vn -0.9607666 0.9607639 -6.0838795
v -4.4648399 3.1383901 0.1987980
vn -1.2964787 2.2455630 -5.6494126
v -5.4803600 6.8393798 1.3739200
vn -0.6793634 1.1766918 -6.0838785
v -3.6878200 3.7346201 0.1987980
vn -0.6711131 2.5045965 -5.6494155
v -3.7108600 7.5723300 1.3739200
vn -0.3516596 1.3124299 -6.0838790
v -2.7829700 4.1094198 0.1987980
vn 0.0000074 2.5929430 -5.6494193
v -1.8119500 7.8223300 1.3739200
vn 0.0000017 1.3587236 -6.0838814
v -1.8119500 4.2372499 0.1987980
vn 0.6711095 2.5046027 -5.6494117
v 0.0869550 7.5723300 1.3739200
vn 0.3516590 1.3124322 -6.0838780
v -0.8409300 4.1094198 0.1987980
vn 0.6793683 1.1766913 -6.0838776
v 0.0639190 3.7346201 0.1987980
vn 1.2964761 2.2455645 -5.6494136
v 1.8564500 6.8393798 1.3739200
vn 0.9584433 3.5768542 -4.9682722
v 0.9304800 10.7203999 3.2743800
vn 1.8515162 3.2069304 -4.9682617
v 3.4860201 9.6618700 3.2743800
vn 1.2015810 4.4842973 -4.0748601
v 1.6521699 13.4138002 5.8157201
vn 2.3212492 4.0205154 -4.0748491
v 4.8802199 12.0767002 5.8157201
vn 1.3909763 5.1911640 -3.0110729
v 2.2199700 15.5328999 8.8850698
vn 2.6871669 4.6542611 -3.0111051
v 5.9771299 13.9765997 8.8850698
vn 1.4810830 5.5274439 -2.4828677
v 2.4994099 16.5757008 11.3732996
vn 2.8611753 4.9557490 -2.4829535
v 6.5169601 14.9116001 11.3732996
vn 0.7160434 2.6722820 -4.6037269
v 2.5833900 16.8890991 12.1211004
vn -0.0000122 2.7664666 -4.6038833
v -1.8119500 17.4678001 12.1211004
vn -0.0000156 5.7223859 -2.4830015
v -1.8119500 17.1432991 11.3732996
vn 0.0000061 5.3743072 -3.0110664
v -1.8119500 16.0636997 8.8850698
vn 0.0000089 4.6424918 -4.0748353
v -1.8119500 13.8698997 5.8157201
vn -0.0000003 3.7030320 -4.9682570
v -1.8119500 11.0815001 3.2743800
vn -0.9584429 3.5768609 -4.9682674
v -4.5543900 10.7203999 3.2743800
vn -1.8515164 3.2069297 -4.9682627
v -7.1099300 9.6618700 3.2743800
vn -2.6184564 2.6184416 -4.9682550
v -9.3044205 7.9779801 3.2743800
vn -3.2069263 1.8515456 -4.9682603
v -10.9883003 5.7834802 3.2743800
vn -3.5768809 0.9584173 -4.9682274
v -12.0468998 3.2279401 3.2743800
vn -2.5929427 0.0000002 -5.6494207
v -9.1487703 0.4855110 1.3739200
vn -3.7030675 -0.0000001 -4.9682465
v -12.4078999 0.4855110 3.2743800
vn -3.5768821 -0.9584172 -4.9682274
v -12.0468998 -2.2569201 3.2743800
vn -2.5045867 -0.6711132 -5.6494203
v -8.8987703 -1.4134001 1.3739200
vn -1.3587269 0.0000002 -6.0838785
v -5.5637002 0.4855110 0.1987980
vn -1.3124282 -0.3516656 -6.0838790
v -5.4358602 -0.4855110 0.1987980
vn 0.0000008 -0.0000003 -6.2126093
v -1.8119500 0.4855110 -0.1987980
vn -1.1766922 -0.6793630 -6.0838790
v -5.0610600 -1.3903600 0.1987980
vn -0.9607634 -0.9607669 -6.0838790
v -4.4648399 -2.1673701 0.1987980
vn -0.6793571 -1.1766919 -6.0838804
v -3.6878200 -2.7635901 0.1987980
vn -0.3516641 -1.3124276 -6.0838795
v -2.7829700 -3.1383901 0.1987980
vn 0.0000000 -1.3587279 -6.0838785
v -1.8119500 -3.2662301 0.1987980
vn 0.3516646 -1.3124279 -6.0838795
v -0.8409300 -3.1383901 0.1987980
vn -0.0000036 -2.5929601 -5.6494098
v -1.8119500 -6.8512998 1.3739200
vn 0.6711022 -2.5046000 -5.6494136
v 0.0869550 -6.6013098 1.3739200
vn 0.6793619 -1.1766913 -6.0838795
v 0.0639190 -2.7635901 0.1987980
vn 1.2964752 -2.2455623 -5.6494141
v 1.8564500 -5.8683600 1.3739200
vn 0.9607644 -0.9607648 -6.0838785
v 0.8409300 -2.1673701 0.1987980
vn 1.8334951 -1.8334930 -5.6494136
v 3.3759601 -4.7024002 1.3739200
vn 1.1766925 -0.6793624 -6.0838795
v 1.4371500 -1.3903600 0.1987980
vn 2.2455587 -1.2964793 -5.6494160
v 4.5419102 -3.1829000 1.3739200
vn 1.3124273 -0.3516661 -6.0838799
v 1.8119500 -0.4855110 0.1987980
vn 2.5045991 -0.6711057 -5.6494126
v 5.2748699 -1.4134001 1.3739200
vn 1.3587258 0.0000003 -6.0838790
v 1.9397900 0.4855110 0.1987980
vn 2.5929537 0.0000002 -5.6494145
v 5.5248599 0.4855110 1.3739200
vn 2.5045989 0.6711059 -5.6494131
v 5.2748699 2.3844199 1.3739200
vn 1.3124270 0.3516662 -6.0838799
v 1.8119500 1.4565300 0.1987980
vn 1.1766927 0.6793622 -6.0838795
v 1.4371500 2.3613801 0.1987980
vn 0.9607674 0.9607618 -6.0838795
v 0.8409300 3.1383901 0.1987980
vn 1.8334949 1.8334932 -5.6494136
v 3.3759601 5.6734200 1.3739200
vn 2.6184452 2.6184468 -4.9682617
v 5.6805100 7.9779801 3.2743800
vn 3.2827477 3.2827449 -4.0748291
v 7.6522102 9.9496803 5.8157201
vn 3.8002067 3.8001807 -3.0111473
v 9.2034702 11.5009003 8.8850698
vn 4.0463743 4.0463476 -2.4828336
v 9.9669104 12.2643995 11.3732996
vn 1.3832445 2.3958883 -4.6037779
v 6.6791902 15.1926003 12.1211004
vn -0.7160270 -2.6722436 -1.6793851
v 2.7943599 17.6765003 12.1211004
vn 0.0000025 -2.7665279 -1.6794143
v -1.8119500 18.2828999 12.1211004
vn -0.7160246 2.6722872 -4.6037240
v -6.2072902 16.8890991 12.1211004
vn 0.7160133 -2.6722524 -1.6793947
v -6.4182601 17.6765003 12.1211004
vn -1.3832610 2.3958991 -4.6037426
v -10.3030996 15.1926003 12.1211004
vn 1.3832777 -2.3958740 -1.6794158
v -10.7107000 15.8985004 12.1211004
vn -1.9562699 1.9563041 -4.6036196
v -13.8202000 12.4938002 12.1211004
vn 1.9562178 -1.9562303 -1.6793966
v -14.3965998 13.0702000 12.1211004
vn -2.3958659 1.3832610 -4.6037960
v -16.5191002 8.9766598 12.1211004
vn 2.3958621 -1.3832396 -1.6793630
v -17.2250004 9.3842201 12.1211004
vn -2.6722596 0.7160259 -4.6037717
v -18.2155991 4.8808498 12.1211004
vn 2.6722608 -0.7160340 -1.6794143
v -19.0028992 5.0918198 12.1211004
vn -2.7665868 0.0000035 -4.6036577
v -18.7942009 0.4855110 12.1211004
vn 2.6722600 0.7160343 -1.6794137
v -19.0028992 -4.1208000 12.1211004
vn 2.7664871 -0.0000001 -1.6793419
v -19.6093998 0.4855110 12.1211004
vn 5.1911860 1.3909661 3.0111051
v -17.4913998 -3.7157900 8.5147200
vn 5.3742976 -0.0000015 3.0111418
v -18.0445004 0.4855110 8.5147200
vn 4.4843121 1.2015717 4.0748091
v -15.2833996 -3.1241400 5.3164301
vn 4.6425076 -0.0000021 4.0748162
v -15.7586002 0.4855110 5.3164301
vn 3.7030306 -0.0000002 4.9682808
v -12.8529997 0.4855110 2.6683199
vn 3.5768533 0.9584066 4.9682755
v -12.4768000 -2.3721299 2.6683199
vn 4.0205173 2.3212590 4.0748315
v -13.8900995 -6.4878001 5.3164301
vn 3.2069259 1.8515145 4.9682655
v -11.3738003 -5.0350299 2.6683199
vn 3.2827375 3.2827501 4.0748396
v -11.6737003 -9.3762398 5.3164301
vn 2.6184502 2.6184425 4.9682570
v -9.6191797 -7.3217101 2.6683199
vn 2.3212628 4.0205283 4.0748324
v -8.7852697 -11.5925999 5.3164301
vn 1.8514993 3.2069335 4.9682589
v -7.3324900 -9.0763502 2.6683199
vn 1.2015598 4.4842906 4.0748539
v -5.4216099 -12.9858999 5.3164301
vn 0.9584203 3.5768633 4.9682798
v -4.6695900 -10.1793003 2.6683199
vn 0.0000013 4.6424880 4.0748615
v -1.8119500 -13.4610996 5.3164301
vn -0.0000056 3.7030516 4.9682264
v -1.8119500 -10.5556002 2.6683199
vn -0.9584143 3.5768588 4.9682832
v 1.0456899 -10.1793003 2.6683199
vn -1.2015574 4.4842901 4.0748577
v 1.7977000 -12.9858999 5.3164301
vn -0.0000029 5.3742833 3.0111217
v -1.8119500 -15.7470999 8.5147200
vn -1.3909836 5.1911478 3.0111179
v 2.3893499 -15.1940002 8.5147200
vn -0.0000029 2.7665281 -1.6794142
v -1.8119500 -17.3118992 12.1211004
vn -0.7160279 2.6722388 -1.6793783
v 2.7943599 -16.7054996 12.1211004
vn 0.0000117 -2.7664690 -4.6038771
v -1.8119500 -16.4967995 12.1211004
vn -0.7160375 -2.6722856 -4.6037221
v -6.2072902 -15.9181004 12.1211004
vn 0.7160228 2.6722474 -1.6793897
v -6.4182601 -16.7054996 12.1211004
vn -1.3832563 -2.3959069 -4.6037354
v -10.3030996 -14.2215996 12.1211004
vn 1.3832650 2.3958578 -1.6793736
v -10.7107000 -14.9274998 12.1211004
vn -1.9562795 -1.9562957 -4.6036186
v -13.8202000 -11.5228004 12.1211004
vn 1.9562124 1.9562287 -1.6793891
v -14.3965998 -12.0992002 12.1211004
vn -2.3957734 -1.3835626 -4.6038442
v -16.5191002 -8.0056295 12.1211004
vn 2.3958642 1.3832361 -1.6793628
v -17.2250004 -8.4132004 12.1211004
vn -2.6722364 -0.7163500 -4.6038127
v -18.2155991 -3.9098301 12.1211004
vn -2.7084761 -3.5013926 -1.5281596
v -17.9022007 -3.8258500 11.3732996
vn -5.1911168 -1.3914404 -3.0111899
v -16.8593006 -3.5464101 8.8850698
vn -5.3742785 0.0000044 -3.0111372
v -17.3901005 0.4855110 8.8850698
vn -2.8612199 -2.7649109 -1.2413950
v -18.4698009 0.4855110 11.3732996
vn -5.5274072 1.4810735 -2.4828930
v -17.9022007 4.7968702 11.3732996
vn -4.6542559 2.6871235 -3.0111995
v -15.3030005 8.2745895 8.8850698
vn -5.1911316 1.3909699 -3.0111670
v -16.8593006 4.5174398 8.8850698
vn -4.0205312 2.3212574 -4.0748353
v -13.4031000 7.1776900 5.8157201
vn -4.4843235 1.2015764 -4.0748391
v -14.7402000 3.9496400 5.8157201
vn -3.2827559 3.2827332 -4.0748353
v -11.2761002 9.9496803 5.8157201
vn -2.3212533 4.0205183 -4.0748377
v -8.5041304 12.0767002 5.8157201
vn -1.2015930 4.4842887 -4.0748649
v -5.2760801 13.4138002 5.8157201
vn -1.3909711 5.1911640 -3.0110810
v -5.8438802 15.5328999 8.8850698
vn -1.4810535 5.5274620 -2.4828432
v -6.1233201 16.5757008 11.3732996
vn -2.8612163 4.9557467 -2.4828935
v -10.1408997 14.9116001 11.3732996
vn -2.6871564 4.6542521 -3.0111461
v -9.6010303 13.9765997 8.8850698
vn -3.8002005 3.8001676 -3.0111606
v -12.8274002 11.5009003 8.8850698
vn -4.9557037 2.8611720 -2.4830112
v -16.2381001 8.8144302 11.3732996
vn -4.0463490 4.0464001 -2.4828207
v -13.5908003 12.2643995 11.3732996
vn -4.6424985 -0.0000007 -4.0748253
v -15.1962996 0.4855110 5.8157201
vn -4.4843259 -1.2015743 -4.0748386
v -14.7402000 -2.9786100 5.8157201
vn -4.0205302 -2.3212590 -4.0748343
v -13.4031000 -6.2066698 5.8157201
vn -3.2069263 -1.8515468 -4.9682593
v -10.9883003 -4.8124599 3.2743800
vn -2.2455654 -1.2964779 -5.6494122
v -8.1658201 -3.1829000 1.3739200
vn -1.8334923 -1.8334941 -5.6494160
v -6.9998598 -4.7024002 1.3739200
vn -1.2964777 -2.2455606 -5.6494131
v -5.4803600 -5.8683600 1.3739200
vn -0.6710970 -2.5046039 -5.6494117
v -3.7108600 -6.6013098 1.3739200
vn -0.0000033 -3.7030528 -4.9682651
v -1.8119500 -10.1104002 3.2743800
vn -0.9583896 -3.5768657 -4.9682627
v -4.5543900 -9.7493896 3.2743800
vn 0.0000100 -4.6425142 -4.0748367
v -1.8119500 -12.8987999 5.8157201
vn -1.2015369 -4.4843216 -4.0748148
v -5.2760801 -12.4427996 5.8157201
vn 0.0000111 -5.3742828 -3.0111582
v -1.8119500 -15.0925999 8.8850698
vn -1.3909352 -5.1911793 -3.0111418
v -5.8438802 -14.5618000 8.8850698
vn 0.0000162 -5.7223396 -2.4830871
v -1.8119500 -16.1723003 11.3732996
vn -1.4810516 -5.5274138 -2.4829381
v -6.1233201 -15.6047001 11.3732996
vn 0.7160274 -2.6722786 -4.6037378
v 2.5833900 -15.9181004 12.1211004
vn 1.4810421 -5.5274115 -2.4829469
v 2.4994099 -15.6047001 11.3732996
vn 1.3909272 -5.1911855 -3.0111315
v 2.2199700 -14.5618000 8.8850698
vn 1.2015187 -4.4843278 -4.0748143
v 1.6521699 -12.4427996 5.8157201
vn 0.9583950 -3.5768657 -4.9682631
v 0.9304800 -9.7493896 3.2743800
vn 1.8515179 -3.2069232 -4.9682684
v 3.4860201 -8.6908503 3.2743800
vn 2.6184485 -2.6184449 -4.9682617
v 5.6805100 -7.0069599 3.2743800
vn 3.2069266 -1.8515232 -4.9682622
v 7.3644099 -4.8124599 3.2743800
vn 3.5768805 -0.9584089 -4.9682474
v 8.4229498 -2.2569201 3.2743800
vn 3.7030518 -0.0000000 -4.9682541
v 8.7839899 0.4855110 3.2743800
vn 3.5768800 0.9584091 -4.9682484
v 8.4229498 3.2279401 3.2743800
vn 3.2069266 1.8515220 -4.9682636
v 7.3644099 5.7834802 3.2743800
vn 2.2455587 1.2964793 -5.6494155
v 4.5419102 4.1539202 1.3739200
vn 4.0205274 2.3212481 -4.0748258
v 9.7792397 7.1776900 5.8157201
vn 4.6542692 2.6871750 -3.0111589
v 11.6791000 8.2745895 8.8850698
vn 2.5636249 -1.3209562 -0.6767421
v 12.6141996 8.8144302 11.3732996
vn 2.3959503 1.3829027 -4.6036396
v 12.8950996 8.9766598 12.1211004
vn 1.9562931 1.9562881 -4.6036072
v 10.1962996 12.4938002 12.1211004
vn -1.3832633 -2.3958912 -1.6794279
v 7.0867600 15.8985004 12.1211004
vn -1.3909465 -5.1911650 3.0111210
v 2.3893499 16.1650009 8.5147200
vn -2.6871252 -4.6542587 3.0111094
v 6.3043399 14.5433998 8.5147200
vn -1.2015585 -4.4843178 4.0748401
v 1.7977000 13.9568996 5.3164301
vn -2.3212595 -4.0205216 4.0748615
v 5.1613598 12.5635996 5.3164301
vn -1.8515401 -3.2069316 4.9682384
v 3.7085900 10.0474005 2.6683199
vn -0.9584047 -3.5768726 4.9682488
v 1.0456899 11.1504002 2.6683199
vn -0.0000023 -4.6425114 4.0748425
v -1.8119500 14.4321003 5.3164301
vn 0.0000000 -3.7030525 4.9682493
v -1.8119500 11.5265999 2.6683199
vn 0.9584035 -3.5768726 4.9682498
v -4.6695900 11.1504002 2.6683199
vn 1.2015717 -4.4843178 4.0748320
v -5.4216099 13.9568996 5.3164301
vn 0.0000014 -5.3742838 3.0111225
v -1.8119500 16.7180996 8.5147200
vn 1.3909382 -5.1911592 3.0111334
v -6.0132599 16.1650009 8.5147200
vn 2.6871300 -4.6542549 3.0111144
v -9.9282503 14.5433998 8.5147200
vn 3.8002124 -3.8002055 3.0111065
v -13.2901001 11.9637003 8.5147200
vn 4.6542740 -2.6871262 3.0111194
v -15.8697996 8.6018105 8.5147200
vn 5.1911860 -1.3909624 3.0111065
v -17.4913998 4.6868100 8.5147200
vn 4.4843144 -1.2015681 4.0748081
v -15.2833996 4.0951600 5.3164301
vn 3.5768528 -0.9584061 4.9682765
v -12.4768000 3.3431499 2.6683199
vn 2.5929585 -0.0000002 5.6494107
v -9.4569902 0.4855110 0.6880350
vn 2.5046005 -0.6711086 5.6494136
v -9.1964903 2.4641900 0.6880350
vn 1.3587301 0.0000003 6.0838771
v -5.7213101 0.4855110 -0.5364590
vn 1.3124318 -0.3516693 6.0838771
v -5.5881000 1.4973300 -0.5364590
vn -0.0000005 0.0000003 6.2126045
v -1.8119500 0.4855110 -0.9507580
vn 1.1766925 -0.6793680 6.0838785
v -5.1975498 2.4401901 -0.5364590
vn 0.9607655 -0.9607672 6.0838790
v -4.5762801 3.2498400 -0.5364590
vn 0.6793696 -1.1766933 6.0838776
v -3.7666299 3.8711100 -0.5364590
vn 0.3516686 -1.3124335 6.0838766
v -2.8237700 4.2616601 -0.5364590
vn -0.0000007 -1.3587331 6.0838766
v -1.8119500 4.3948698 -0.5364590
vn -0.0000003 -2.5929441 5.6494217
v -1.8119500 8.1305399 0.6880350
vn 0.6711014 -2.5045907 5.6494203
v -3.7906301 7.8700500 0.6880350
vn 1.2964675 -2.2455521 5.6494255
v -5.6344700 7.1062999 0.6880350
vn 1.8515359 -3.2069328 4.9682398
v -7.3324900 10.0474005 2.6683199
vn 2.3212340 -4.0205321 4.0748668
v -8.7852697 12.5635996 5.3164301
vn 3.2827225 -3.2827506 4.0748382
v -11.6737003 10.3472996 5.3164301
vn 4.0205231 -2.3212466 4.0748348
v -13.8900995 7.4588299 5.3164301
vn 3.2069256 -1.8515096 4.9682684
v -11.3738003 6.0060501 2.6683199
vn 2.2455611 -1.2964747 5.6494184
v -8.4327402 4.3080301 0.6880350
vn 1.8334920 -1.8334868 5.6494179
v -7.2178102 5.8913698 0.6880350
vn 2.6184528 -2.6184392 4.9682612
v -9.6191797 8.2927303 2.6683199
vn -0.6711031 -2.5045903 5.6494207
v 0.1667270 7.8700500 0.6880350
vn -1.2964679 -2.2455506 5.6494265
v 2.0105600 7.1062999 0.6880350
vn -1.8334894 -1.8334899 5.6494188
v 3.5939000 5.8913698 0.6880350
vn -2.6184494 -2.6184409 4.9682636
v 5.9952698 8.2927303 2.6683199
vn -2.2455623 -1.2964735 5.6494169
v 4.8088398 4.3080301 0.6880350
vn -3.2069187 -1.8515152 4.9682713
v 7.7498999 6.0060501 2.6683199
vn -2.5045965 -0.6711044 5.6494179
v 5.5725799 2.4641900 0.6880350
vn -3.5768754 -0.9584113 4.9682503
v 8.8529100 3.3431499 2.6683199
vn -2.5929480 -0.0000002 5.6494174
v 5.8330798 0.4855110 0.6880350
vn -3.7030435 -0.0000002 4.9682541
v 9.2291298 0.4855110 2.6683199
vn -3.5768754 0.9584117 4.9682488
v 8.8529100 -2.3721299 2.6683199
vn -2.5045953 0.6711060 5.6494179
v 5.5725799 -1.4931700 0.6880350
vn -1.3587310 0.0000003 6.0838771
v 2.0974000 0.4855110 -0.5364590
vn -1.3124330 0.3516651 6.0838776
v 1.9641900 -0.5263040 -0.5364590
vn -1.3124332 -0.3516636 6.0838780
v 1.9641900 1.4973300 -0.5364590
vn -1.1766970 -0.6793654 6.0838761
v 1.5736500 2.4401901 -0.5364590
vn -0.9607643 -0.9607697 6.0838776
v 0.9523770 3.2498400 -0.5364590
vn -0.6793686 -1.1766942 6.0838771
v 0.1427240 3.8711100 -0.5364590
vn -0.3516684 -1.3124331 6.0838771
v -0.8001380 4.2616601 -0.5364590
vn -1.1766980 0.6793636 6.0838771
v 1.5736500 -1.4691600 -0.5364590
vn -0.9607693 0.9607677 6.0838771
v 0.9523770 -2.2788200 -0.5364590
vn -0.6793642 1.1766975 6.0838766
v 0.1427240 -2.9000900 -0.5364590
vn -0.3516629 1.3124323 6.0838785
v -0.8001380 -3.2906301 -0.5364590
vn -0.0000005 1.3587310 6.0838776
v -1.8119500 -3.4238400 -0.5364590
vn 0.3516629 1.3124330 6.0838780
v -2.8237700 -3.2906301 -0.5364590
vn 0.6793650 1.1766967 6.0838766
v -3.7666299 -2.9000900 -0.5364590
vn 0.9607705 0.9607652 6.0838776
v -4.5762801 -2.2788200 -0.5364590
vn 1.1766934 0.6793662 6.0838785
v -5.1975498 -1.4691600 -0.5364590
vn 1.3124313 0.3516706 6.0838771
v -5.5881000 -0.5263040 -0.5364590
vn 2.5045996 0.6711102 5.6494141
v -9.1964903 -1.4931700 0.6880350
vn 2.2455580 1.2964755 5.6494188
v -8.4327402 -3.3369999 0.6880350
vn 1.8334949 1.8334872 5.6494174
v -7.2178102 -4.9203401 0.6880350
vn 1.2964694 2.2455673 5.6494141
v -5.6344700 -6.1352801 0.6880350
vn 0.6711156 2.5046022 5.6494126
v -3.7906301 -6.8990202 0.6880350
vn -0.0000110 2.5929456 5.6494198
v -1.8119500 -7.1595201 0.6880350
vn -0.6711093 2.5046129 5.6494064
v 0.1667270 -6.8990202 0.6880350
vn -1.2964699 2.2455661 5.6494160
v 2.0105600 -6.1352801 0.6880350
vn -1.8515036 3.2069318 4.9682565
v 3.7085900 -9.0763502 2.6683199
vn -2.3212681 4.0205259 4.0748334
v 5.1613598 -11.5925999 5.3164301
vn -2.6871476 4.6542721 3.0111394
v 6.3043399 -13.5723000 8.5147200
vn -1.3832550 2.3958731 -1.6793880
v 7.0867600 -14.9274998 12.1211004
vn 1.3832581 -2.3958776 -4.6037822
v 6.6791902 -14.2215996 12.1211004
vn 2.8611763 -4.9557538 -2.4829383
v 6.5169601 -13.9406004 11.3732996
vn 2.6871164 -4.6542749 -3.0111182
v 5.9771299 -13.0056000 8.8850698
vn 2.3212552 -4.0205088 -4.0748444
v 4.8802199 -11.1056995 5.8157201
vn 3.2827559 -3.2827377 -4.0748348
v 7.6522102 -8.9786501 5.8157201
vn 4.0205264 -2.3212495 -4.0748248
v 9.7792397 -6.2066698 5.8157201
vn 4.4843192 -1.2015520 -4.0748549
v 11.1162996 -2.9786100 5.8157201
vn 4.6424947 -0.0000007 -4.0748281
v 11.5724001 0.4855110 5.8157201
vn 4.4843168 1.2015541 -4.0748549
v 11.1162996 3.9496400 5.8157201
vn 5.1911354 1.3909680 -3.0111644
v 13.2354002 4.5174398 8.8850698
vn 5.5273900 1.4811270 -2.4829173
v 14.2783003 4.7968702 11.3732996
vn 2.6722550 0.7160575 -4.6037617
v 14.5916996 4.8808498 12.1211004
vn -2.3958652 -1.3832388 -1.6793658
v 13.6011000 9.3842201 12.1211004
vn -1.9562216 -1.9562345 -1.6794086
v 10.7727003 13.0702000 12.1211004
vn -3.8001945 -3.8001990 3.0111217
v 9.6662197 11.9637003 8.5147200
vn -3.2827086 -3.2827692 4.0748291
v 8.0497999 10.3472996 5.3164301
vn -4.0205340 -2.3212197 4.0748334
v 10.2662001 7.4588299 5.3164301
vn -4.4843245 -1.2015699 4.0748539
v 11.6594000 4.0951600 5.3164301
vn -4.6424994 0.0000185 4.0748038
v 12.1346998 0.4855110 5.3164301
vn -4.4843369 1.2015561 4.0748386
v 11.6594000 -3.1241400 5.3164301
vn -4.0205283 2.3212314 4.0748301
v 10.2662001 -6.4878001 5.3164301
vn -3.2069192 1.8515199 4.9682674
v 7.7498999 -5.0350299 2.6683199
vn -2.2455595 1.2964742 5.6494179
v 4.8088398 -3.3369999 0.6880350
vn -1.8334918 1.8334900 5.6494184
v 3.5939000 -4.9203401 0.6880350
vn -2.6184468 2.6184447 4.9682593
v 5.9952698 -7.3217101 2.6683199
vn -3.2827294 3.2827532 4.0748415
v 8.0497999 -9.3762398 5.3164301
vn -3.8001664 3.8002021 3.0111315
v 9.6662197 -10.9926996 8.5147200
vn -1.9562147 1.9562333 -1.6793990
v 10.7727003 -12.0992002 12.1211004
vn 1.9562811 -1.9562881 -4.6036186
v 10.1962996 -11.5228004 12.1211004
vn 4.0463858 -4.0463467 -2.4828119
v 9.9669104 -11.2933998 11.3732996
vn 3.8002143 -3.8001556 -3.0111704
v 9.2034702 -10.5298996 8.8850698
vn 4.6542602 -2.6871400 -3.0111802
v 11.6791000 -7.3035698 8.8850698
vn 5.1911440 -1.3909494 -3.0111523
v 13.2354002 -3.5464101 8.8850698
vn 5.3742776 -0.0004906 -3.0111437
v 13.7662001 0.4855110 8.8850698
vn 2.8612249 -2.7649257 -1.2413869
v 14.8458996 0.4855110 11.3732996
vn 2.7665877 0.0000030 -4.6036587
v 15.1702995 0.4855110 12.1211004
vn -2.6722579 -0.7160209 -1.6794027
v 15.3789997 5.0918198 12.1211004
vn -4.6542778 -2.6871200 3.0111217
v 12.2459002 8.6018105 8.5147200
vn -5.1911774 -1.3909438 3.0111158
v 13.8675003 4.6868100 8.5147200
vn -5.3742914 -0.0000020 3.0111418
v 14.4205999 0.4855110 8.5147200
vn -5.1911626 1.3909440 3.0111399
v 13.8675003 -3.7157900 8.5147200
vn -4.6542778 2.6871140 3.0111308
v 12.2459002 -7.6307802 8.5147200
vn -2.3958673 1.3832351 -1.6793654
v 13.6011000 -8.4132004 12.1211004
vn 2.3959384 -1.3833890 -4.6035562
v 12.8950996 -8.0056295 12.1211004
vn 4.9557185 -2.8613575 -2.4826746
v 12.6141996 -7.8434000 11.3732996
vn 2.6722584 -0.7160307 -4.6037679
v 14.5916996 -3.9098301 12.1211004
vn -2.6722603 0.7160345 -1.6794128
v 15.3789997 -4.1208000 12.1211004
vn 5.5273938 -1.4810803 -2.4829228
v 14.2783003 -3.8258500 11.3732996
vn -2.7664807 -0.0000121 -1.6793307
v 15.9855003 0.4855110 12.1211004
vn -2.8611946 -4.9557490 -2.4829094
v -10.1408997 -13.9406004 11.3732996
vn -2.6871157 -4.6542654 -3.0111396
v -9.6010303 -13.0056000 8.8850698
vn -2.3212543 -4.0205159 -4.0748320
v -8.5041304 -11.1056995 5.8157201
vn -1.8515178 -3.2069223 -4.9682689
v -7.1099300 -8.6908503 3.2743800
vn -2.6184597 -2.6184392 -4.9682555
v -9.3044205 -7.0069599 3.2743800
vn -3.2827647 -3.2827239 -4.0748425
v -11.2761002 -8.9786501 5.8157201
vn -3.8002002 -3.8001559 -3.0111649
v -12.8274002 -10.5298996 8.8850698
vn -4.0463576 -4.0463848 -2.4828289
v -13.5908003 -11.2933998 11.3732996
vn -4.6541300 -2.6875854 -3.0112371
v -15.3030005 -7.3035698 8.8850698
vn -1.8195593 -4.1104331 -1.5792322
v -16.2381001 -7.8434000 11.3732996
vn 4.6542745 2.6871200 3.0111279
v -15.8697996 -7.6307802 8.5147200
vn 3.8001726 3.8002090 3.0111260
v -13.2901001 -10.9926996 8.5147200
vn 2.6871595 4.6542606 3.0111468
v -9.9282503 -13.5723000 8.5147200
vn 1.3909786 5.1911426 3.0111308
v -6.0132599 -15.1940002 8.5147200
vn 0.0000000 0.0000000 0.0000000
v -18.8080997 0.3800250 12.1211004
vn 0.0000000 0.0000000 0.0000000
v -18.7942009 0.4855110 12.1211004
# 316 vertices, 0 vertices normals

f 1//1 2//2 3//3
f 2//2 1//1 4//4
f 5//5 4//4 1//1
f 4//4 5//5 6//6
f 7//7 6//6 5//5
f 6//6 7//7 8//8
f 9//9 8//8 7//7
f 8//8 9//9 10//10
f 11//11 10//10 9//9
f 10//10 11//11 12//12
f 13//13 12//12 11//11
f 12//12 13//13 14//14
f 13//13 15//15 14//14
f 15//15 13//13 16//16
f 17//17 16//16 13//13
f 16//16 17//17 18//18
f 19//19 18//18 17//17
f 18//18 19//19 20//20
f 21//21 20//20 19//19
f 20//20 21//21 22//22
f 23//23 22//22 21//21
f 22//22 23//23 24//24
f 24//24 23//23 25//25
f 23//23 26//26 25//25
f 23//23 27//27 26//26
f 21//21 27//27 23//23
f 27//27 21//21 28//28
f 19//19 28//28 21//21
f 28//28 19//19 29//29
f 19//19 30//30 29//29
f 30//30 19//19 17//17
f 17//17 11//11 30//30
f 11//11 17//17 13//13
f 9//9 30//30 11//11
f 30//30 9//9 31//31
f 7//7 31//31 9//9
f 31//31 7//7 32//32
f 5//5 32//32 7//7
f 32//32 5//5 33//33
f 1//1 33//33 5//5
f 33//33 1//1 34//34
f 3//3 34//34 1//1
f 34//34 3//3 35//35
f 36//36 35//35 3//3
f 35//35 36//36 37//37
f 36//36 38//38 37//37
f 38//38 36//36 39//39
f 40//40 39//39 36//36
f 39//39 40//40 41//41
f 42//42 41//41 40//40
f 42//42 43//43 41//41
f 42//42 44//44 43//43
f 42//42 45//45 44//44
f 42//42 46//46 45//45
f 42//42 47//47 46//46
f 48//48 47//47 42//42
f 48//48 49//49 47//47
f 49//49 48//48 50//50
f 51//51 50//50 48//48
f 50//50 51//51 52//52
f 53//53 52//52 51//51
f 52//52 53//53 54//54
f 55//55 54//54 53//53
f 54//54 55//55 56//56
f 57//57 56//56 55//55
f 56//56 57//57 58//58
f 59//59 58//58 57//57
f 58//58 59//59 60//60
f 59//59 61//61 60//60
f 61//61 59//59 62//62
f 59//59 42//42 62//62
f 59//59 57//57 42//42
f 57//57 55//55 42//42
f 55//55 53//53 42//42
f 53//53 51//51 42//42
f 51//51 48//48 42//42
f 62//62 42//42 63//63
f 63//63 42//42 64//64
f 64//64 42//42 15//15
f 15//15 42//42 14//14
f 14//14 42//42 12//12
f 42//42 10//10 12//12
f 42//42 8//8 10//10
f 42//42 6//6 8//8
f 42//42 4//4 6//6
f 42//42 2//2 4//4
f 42//42 40//40 2//2
f 40//40 3//3 2//2
f 3//3 40//40 36//36
f 16//16 64//64 15//15
f 64//64 16//16 65//65
f 18//18 65//65 16//16
f 65//65 18//18 66//66
f 20//20 66//66 18//18
f 66//66 20//20 67//67
f 22//22 67//67 20//20
f 67//67 22//22 68//68
f 24//24 68//68 22//22
f 68//68 24//24 69//69
f 69//69 24//24 70//70
f 24//24 25//25 70//70
f 25//25 71//71 70//70
f 26//26 71//71 25//25
f 26//26 72//72 71//71
f 73//73 72//72 26//26
f 73//73 74//74 72//72
f 75//75 74//74 73//73
f 75//75 76//76 74//74
f 77//77 76//76 75//75
f 77//77 78//78 76//76
f 79//79 78//78 77//77
f 79//79 80//80 78//78
f 81//81 80//80 79//79
f 81//81 82//82 80//80
f 83//83 82//82 81//81
f 84//84 82//82 83//83
f 82//82 84//84 85//85
f 86//86 85//85 84//84
f 85//85 86//86 87//87
f 88//88 87//87 86//86
f 87//87 88//88 89//89
f 88//88 90//90 89//89
f 90//90 88//88 91//91
f 92//92 91//91 88//88
f 91//91 92//92 93//93
f 94//94 93//93 92//92
f 93//93 94//94 95//95
f 96//96 95//95 94//94
f 95//95 96//96 97//97
f 98//98 97//97 96//96
f 97//97 98//98 99//99
f 100//100 99//99 98//98
f 99//99 100//100 101//101
f 100//100 102//102 101//101
f 102//102 100//100 103//103
f 104//104 103//103 100//100
f 103//103 104//104 105//105
f 106//106 105//105 104//104
f 105//105 106//106 107//107
f 106//106 108//108 107//107
f 106//106 109//109 108//108
f 110//110 109//109 106//106
f 110//110 111//111 109//109
f 112//112 111//111 110//110
f 112//112 113//113 111//111
f 114//114 113//113 112//112
f 114//114 115//115 113//113
f 116//116 115//115 114//114
f 116//116 117//117 115//115
f 84//84 117//117 116//116
f 117//117 84//84 83//83
f 83//83 118//118 117//117
f 118//118 83//83 119//119
f 119//119 83//83 120//120
f 120//120 83//83 121//121
f 81//81 121//121 83//83
f 121//121 81//81 120//120
f 120//120 81//81 122//122
f 123//123 122//122 81//81
f 122//122 123//123 124//124
f 125//125 124//124 123//123
f 124//124 125//125 126//126
f 125//125 35//35 126//126
f 35//35 125//125 34//34
f 127//127 34//34 125//125
f 34//34 127//127 33//33
f 128//128 33//33 127//127
f 33//33 128//128 32//32
f 129//129 32//32 128//128
f 32//32 129//129 31//31
f 29//29 31//31 129//129
f 31//31 29//29 30//30
f 130//130 29//29 129//129
f 29//29 130//130 28//28
f 131//131 28//28 130//130
f 28//28 131//131 27//27
f 27//27 131//131 73//73
f 131//131 75//75 73//73
f 131//131 132//132 75//75
f 130//130 132//132 131//131
f 132//132 130//130 133//133
f 129//129 133//133 130//130
f 133//133 129//129 128//128
f 128//128 134//134 133//133
f 134//134 128//128 127//127
f 127//127 123//123 134//134
f 123//123 127//127 125//125
f 135//135 134//134 123//123
f 134//134 135//135 79//79
f 135//135 81//81 79//79
f 123//123 81//81 135//135
f 134//134 79//79 136//136
f 136//136 79//79 77//77
f 132//132 136//136 77//77
f 133//133 136//136 132//132
f 136//136 133//133 134//134
f 132//132 77//77 75//75
f 27//27 73//73 26//26
f 37//37 126//126 35//35
f 126//126 37//37 137//137
f 37//37 138//138 137//137
f 138//138 37//37 38//38
f 38//38 139//139 138//138
f 139//139 38//38 140//140
f 39//39 140//140 38//38
f 140//140 39//39 141//141
f 41//41 141//141 39//39
f 141//141 41//41 43//43
f 43//43 142//142 141//141
f 142//142 43//43 44//44
f 44//44 143//143 142//142
f 143//143 44//44 45//45
f 45//45 144//144 143//143
f 144//144 45//45 46//46
f 46//46 49//49 144//144
f 49//49 46//46 47//47
f 145//145 144//144 49//49
f 144//144 145//145 146//146
f 147//147 146//146 145//145
f 146//146 147//147 148//148
f 149//149 148//148 147//147
f 148//148 149//149 150//150
f 151//151 150//150 149//149
f 150//150 151//151 152//152
f 152//152 151//151 108//108
f 151//151 153//153 108//108
f 151//151 154//154 153//153
f 149//149 154//154 151//151
f 154//154 149//149 155//155
f 147//147 155//155 149//149
f 155//155 147//147 156//156
f 145//145 156//156 147//147
f 156//156 145//145 157//157
f 49//49 157//157 145//145
f 157//157 49//49 50//50
f 52//52 157//157 50//50
f 157//157 52//52 158//158
f 54//54 158//158 52//52
f 158//158 54//54 159//159
f 56//56 159//159 54//54
f 159//159 56//56 160//160
f 58//58 160//160 56//56
f 160//160 58//58 161//161
f 60//60 161//161 58//58
f 161//161 60//60 162//162
f 60//60 163//163 162//162
f 163//163 60//60 61//61
f 61//61 164//164 163//163
f 164//164 61//61 165//165
f 62//62 165//165 61//61
f 165//165 62//62 63//63
f 63//63 65//65 165//165
f 65//65 63//63 64//64
f 66//66 165//165 65//65
f 165//165 66//66 164//164
f 67//67 164//164 66//66
f 164//164 67//67 166//166
f 67//67 167//167 166//166
f 167//167 67//67 68//68
f 68//68 168//168 167//167
f 168//168 68//68 169//169
f 169//169 68//68 69//69
f 169//169 69//69 170//170
f 69//69 70//70 170//170
f 70//70 171//171 170//170
f 70//70 71//71 171//171
f 172//172 171//171 71//71
f 171//171 172//172 173//173
f 174//174 173//173 172//172
f 173//173 174//174 175//175
f 174//174 176//176 175//175
f 176//176 174//174 177//177
f 178//178 177//177 174//174
f 177//177 178//178 179//179
f 178//178 180//180 179//179
f 180//180 178//178 181//181
f 182//182 181//181 178//178
f 181//181 182//182 183//183
f 72//72 183//183 182//182
f 183//183 72//72 74//74
f 74//74 184//184 183//183
f 184//184 74//74 76//76
f 76//76 185//185 184//184
f 185//185 76//76 78//78
f 80//80 185//185 78//78
f 185//185 80//80 186//186
f 82//82 186//186 80//80
f 186//186 82//82 187//187
f 85//85 187//187 82//82
f 187//187 85//85 87//87
f 89//89 187//187 87//87
f 187//187 89//89 188//188
f 90//90 188//188 89//89
f 188//188 90//90 189//189
f 190//190 189//189 90//90
f 189//189 190//190 191//191
f 192//192 191//191 190//190
f 191//191 192//192 193//193
f 194//194 193//193 192//192
f 194//194 195//195 193//193
f 194//194 196//196 195//195
f 194//194 197//197 196//196
f 194//194 198//198 197//197
f 199//199 198//198 194//194
f 200//200 198//198 199//199
f 198//198 200//200 201//201
f 179//179 201//201 200//200
f 201//201 179//179 180//180
f 180//180 202//202 201//201
f 202//202 180//180 203//203
f 181//181 203//203 180//180
f 203//203 181//181 204//204
f 183//183 204//204 181//181
f 204//204 183//183 184//184
f 184//184 205//205 204//204
f 205//205 184//184 185//185
f 186//186 205//205 185//185
f 205//205 186//186 206//206
f 187//187 206//206 186//186
f 206//206 187//187 188//188
f 189//189 206//206 188//188
f 206//206 189//189 207//207
f 191//191 207//207 189//189
f 207//207 191//191 208//208
f 193//193 208//208 191//191
f 208//208 193//193 195//195
f 195//195 209//209 208//208
f 209//209 195//195 196//196
f 196//196 202//202 209//209
f 202//202 196//196 197//197
f 197//197 201//201 202//202
f 201//201 197//197 198//198
f 203//203 209//209 202//202
f 209//209 203//203 210//210
f 204//204 210//210 203//203
f 210//210 204//204 205//205
f 205//205 207//207 210//210
f 207//207 205//205 206//206
f 208//208 210//210 207//207
f 210//210 208//208 209//209
f 211//211 179//179 200//200
f 179//179 211//211 177//177
f 212//212 177//177 211//211
f 177//177 212//212 176//176
f 213//213 176//176 212//212
f 176//176 213//213 214//214
f 215//215 214//214 213//213
f 214//214 215//215 216//216
f 217//217 216//216 215//215
f 216//216 217//217 218//218
f 219//219 218//218 217//217
f 218//218 219//219 220//220
f 219//219 221//221 220//220
f 221//221 219//219 222//222
f 223//223 222//222 219//219
f 222//222 223//223 224//224
f 223//223 194//194 224//224
f 223//223 225//225 194//194
f 223//223 217//217 225//225
f 217//217 223//223 219//219
f 215//215 225//225 217//217
f 225//225 215//215 226//226
f 213//213 226//226 215//215
f 226//226 213//213 227//227
f 212//212 227//227 213//213
f 227//227 212//212 228//228
f 211//211 228//228 212//212
f 228//228 211//211 229//229
f 200//200 229//229 211//211
f 229//229 200//200 199//199
f 229//229 199//199 194//194
f 228//228 229//229 194//194
f 227//227 228//228 194//194
f 226//226 227//227 194//194
f 225//225 226//226 194//194
f 224//224 194//194 230//230
f 230//230 194//194 231//231
f 231//231 194//194 232//232
f 232//232 194//194 233//233
f 233//233 194//194 234//234
f 234//234 194//194 235//235
f 194//194 236//236 235//235
f 194//194 237//237 236//236
f 194//194 238//238 237//237
f 194//194 239//239 238//238
f 194//194 192//192 239//239
f 192//192 240//240 239//239
f 240//240 192//192 190//190
f 190//190 91//91 240//240
f 91//91 190//190 90//90
f 93//93 240//240 91//91
f 240//240 93//93 241//241
f 95//95 241//241 93//93
f 241//241 95//95 242//242
f 97//97 242//242 95//95
f 242//242 97//97 243//243
f 99//99 243//243 97//97
f 243//243 99//99 244//244
f 101//101 244//244 99//99
f 244//244 101//101 245//245
f 102//102 245//245 101//101
f 245//245 102//102 246//246
f 102//102 247//247 246//246
f 247//247 102//102 248//248
f 103//103 248//248 102//102
f 248//248 103//103 249//249
f 105//105 249//249 103//103
f 249//249 105//105 250//250
f 107//107 250//250 105//105
f 250//250 107//107 251//251
f 107//107 252//252 251//251
f 107//107 153//153 252//252
f 107//107 108//108 153//153
f 154//154 252//252 153//153
f 154//154 253//253 252//252
f 155//155 253//253 154//154
f 253//253 155//155 254//254
f 156//156 254//254 155//155
f 254//254 156//156 255//255
f 156//156 158//158 255//255
f 158//158 156//156 157//157
f 159//159 255//255 158//158
f 255//255 159//159 256//256
f 160//160 256//256 159//159
f 256//256 160//160 257//257
f 161//161 257//257 160//160
f 257//257 161//161 258//258
f 162//162 258//258 161//161
f 258//258 162//162 259//259
f 162//162 260//260 259//259
f 260//260 162//162 163//163
f 163//163 166//166 260//260
f 166//166 163//163 164//164
f 166//166 261//261 260//260
f 261//261 166//166 167//167
f 167//167 262//262 261//261
f 262//262 167//167 263//263
f 263//263 167//167 169//169
f 169//169 167//167 168//168
f 169//169 264//264 263//263
f 169//169 265//265 264//264
f 170//170 265//265 169//169
f 170//170 171//171 265//265
f 173//173 265//265 171//171
f 265//265 173//173 266//266
f 175//175 266//266 173//173
f 266//266 175//175 267//267
f 175//175 214//214 267//267
f 214//214 175//175 176//176
f 216//216 267//267 214//214
f 267//267 216//216 268//268
f 218//218 268//268 216//216
f 268//268 218//218 269//269
f 220//220 269//269 218//218
f 269//269 220//220 270//270
f 220//220 271//271 270//270
f 271//271 220//220 221//221
f 221//221 272//272 271//271
f 272//272 221//221 273//273
f 222//222 273//273 221//221
f 273//273 222//222 274//274
f 224//224 274//274 222//222
f 274//274 224//224 230//230
f 230//230 275//275 274//274
f 275//275 230//230 231//231
f 231//231 247//247 275//275
f 247//247 231//231 232//232
f 232//232 246//246 247//247
f 246//246 232//232 233//233
f 234//234 246//246 233//233
f 246//246 234//234 245//245
f 235//235 245//245 234//234
f 245//245 235//235 244//244
f 236//236 244//244 235//235
f 244//244 236//236 243//243
f 237//237 243//243 236//236
f 243//243 237//237 242//242
f 238//238 242//242 237//237
f 242//242 238//238 241//241
f 239//239 241//241 238//238
f 241//241 239//239 240//240
f 248//248 275//275 247//247
f 275//275 248//248 276//276
f 249//249 276//276 248//248
f 276//276 249//249 277//277
f 250//250 277//277 249//249
f 277//277 250//250 278//278
f 251//251 278//278 250//250
f 278//278 251//251 279//279
f 251//251 280//280 279//279
f 251//251 252//252 280//280
f 253//253 280//280 252//252
f 253//253 281//281 280//280
f 254//254 281//281 253//253
f 281//281 254//254 282//282
f 255//255 282//282 254//254
f 282//282 255//255 256//256
f 256//256 283//283 282//282
f 283//283 256//256 257//257
f 257//257 284//284 283//283
f 284//284 257//257 258//258
f 258//258 285//285 284//284
f 285//285 258//258 259//259
f 260//260 285//285 259//259
f 285//285 260//260 261//261
f 261//261 286//286 285//285
f 262//262 286//286 261//261
f 263//263 286//286 262//262
f 286//286 263//263 287//287
f 263//263 288//288 287//287
f 263//263 264//264 288//288
f 289//289 288//288 264//264
f 288//288 289//289 290//290
f 268//268 290//290 289//289
f 290//290 268//268 269//269
f 270//270 290//290 269//269
f 290//290 270//270 291//291
f 271//271 291//291 270//270
f 291//291 271//271 292//292
f 272//272 292//292 271//271
f 292//292 272//272 293//293
f 277//277 293//293 272//272
f 293//293 277//277 278//278
f 278//278 294//294 293//293
f 294//294 278//278 279//279
f 279//279 295//295 294//294
f 279//279 280//280 295//295
f 281//281 295//295 280//280
f 295//295 281//281 282//282
f 295//295 282//282 296//296
f 296//296 282//282 283//283
f 297//297 296//296 283//283
f 296//296 297//297 295//295
f 294//294 295//295 297//297
f 294//294 297//297 298//298
f 298//298 297//297 287//287
f 299//299 287//287 297//297
f 287//287 299//299 284//284
f 299//299 283//283 284//284
f 297//297 283//283 299//299
f 287//287 284//284 285//285
f 287//287 285//285 286//286
f 287//287 288//288 298//298
f 298//298 288//288 300//300
f 288//288 291//291 300//300
f 291//291 288//288 290//290
f 292//292 300//300 291//291
f 300//300 292//292 298//298
f 293//293 298//298 292//292
f 298//298 293//293 294//294
f 273//273 277//277 272//272
f 277//277 273//273 276//276
f 274//274 276//276 273//273
f 276//276 274//274 275//275
f 289//289 267//267 268//268
f 267//267 289//289 266//266
f 264//264 266//266 289//289
f 266//266 264//264 265//265
f 182//182 71//71 72//72
f 71//71 182//182 172//172
f 178//178 172//172 182//182
f 172//172 178//178 174//174
f 152//152 108//108 109//109
f 301//301 152//152 109//109
f 302//302 152//152 301//301
f 152//152 302//302 150//150
f 303//303 150//150 302//302
f 150//150 303//303 148//148
f 304//304 148//148 303//303
f 148//148 304//304 146//146
f 143//143 146//146 304//304
f 146//146 143//143 144//144
f 304//304 142//142 143//143
f 142//142 304//304 305//305
f 303//303 305//305 304//304
f 305//305 303//303 306//306
f 302//302 306//306 303//303
f 306//306 302//302 307//307
f 301//301 307//307 302//302
f 307//307 301//301 308//308
f 308//308 301//301 111//111
f 301//301 109//109 111//111
f 308//308 111//111 113//113
f 115//115 308//308 113//113
f 308//308 115//115 307//307
f 307//307 115//115 309//309
f 309//309 115//115 310//310
f 117//117 310//310 115//115
f 310//310 117//117 309//309
f 309//309 117//117 119//119
f 119//119 117//117 118//118
f 119//119 139//139 309//309
f 139//139 119//119 138//138
f 120//120 138//138 119//119
f 138//138 120//120 137//137
f 120//120 126//126 137//137
f 126//126 120//120 124//124
f 120//120 122//122 124//124
f 306//306 309//309 139//139
f 309//309 306//306 307//307
f 140//140 306//306 139//139
f 306//306 140//140 305//305
f 141//141 305//305 140//140
f 305//305 141//141 142//142
f 311//311 84//84 116//116
f 84//84 311//311 86//86
f 92//92 86//86 311//311
f 86//86 92//92 88//88
f 311//311 94//94 92//92
f 94//94 311//311 312//312
f 116//116 312//312 311//311
f 312//312 116//116 114//114
f 114//114 313//313 312//312
f 313//313 114//114 112//112
f 112//112 314//314 313//313
f 314//314 112//112 110//110
f 110//110 104//104 314//314
f 104//104 110//110 106//106
f 100//100 314//314 104//104
f 314//314 100//100 98//98
f 98//98 313//313 314//314
f 313//313 98//98 96//96
f 96//96 312//312 313//313
f 312//312 96//96 94//94
# 624 faces, 0 coords texture

# End of File
